<?xml version="1.0" standalone="no"?><!DOCTYPE svg PUBLIC "-//W3C//DTD SVG 1.1//EN" "http://www.w3.org/Graphics/SVG/1.1/DTD/svg11.dtd"><svg t="1773969622950" class="icon" viewBox="0 0 1024 1024" version="1.1" xmlns="http://www.w3.org/2000/svg" p-id="14154" xmlns:xlink="http://www.w3.org/1999/xlink" width="48" height="48"><path d="M433.803 65.184v431.212c0 17.314 14.023 31.339 31.339 31.339h7.398a57.812 57.812 0 0 0 40.877-16.913l73.432-73.372c11.285-11.265 29.563-11.265 40.848 0l73.636 73.432a57.83 57.83 0 0 0 40.818 16.853h7.314a31.25 31.25 0 0 0 22.099-9.136 31.224 31.224 0 0 0 9.151-22.09V65.184h57.819c31.935 0 57.819 25.885 57.819 57.818v780.553c0 31.935-25.885 57.819-57.819 57.819H186.53c-31.935 0-57.82-25.885-57.82-57.819V123.002a57.819 57.819 0 0 1 16.933-40.886 57.823 57.823 0 0 1 40.888-16.932h247.272z m57.818 0h231.274v385.74l-74.757-74.762c-22.58-22.571-59.18-22.571-81.755 0l-74.763 74.762V65.184z m0 0" p-id="14155" fill="#171717"></path></svg>